<?xml version="1.0" encoding="UTF-8"?>
<svg xmlns="http://www.w3.org/2000/svg" xmlns:xlink="http://www.w3.org/1999/xlink" width="239.703pt" height="239.703pt" viewBox="0 0 239.703 239.703" version="1.1">
<g id="surface1">
<path style=" stroke:none;fill-rule:nonzero;fill:rgb(82.798767%,82.798767%,82.798767%);fill-opacity:1;" d="M 0.796875 0.796875 L 0.796875 238.910156 L 238.910156 238.910156 L 238.910156 0.796875 Z M 0.796875 0.796875 "/>
<path style="fill:none;stroke-width:1.59404;stroke-linecap:butt;stroke-linejoin:miter;stroke:rgb(0%,0%,0%);stroke-opacity:1;stroke-miterlimit:10;" d="M -0.000125 0.000125 L -0.000125 -238.113156 L 238.113156 -238.113156 L 238.113156 0.000125 Z M -0.000125 0.000125 " transform="matrix(1,0,0,-1,0.797,0.797)"/>
<path style="fill-rule:nonzero;fill:rgb(100%,100%,100%);fill-opacity:1;stroke-width:1.59404;stroke-linecap:butt;stroke-linejoin:miter;stroke:rgb(0%,0%,0%);stroke-opacity:1;stroke-miterlimit:10;" d="M 39.683469 -59.527219 L 39.683469 -198.425656 L 218.269406 -198.425656 L 218.269406 -59.527219 Z M 39.683469 -59.527219 " transform="matrix(1,0,0,-1,0.797,0.797)"/>
<path style="fill:none;stroke-width:0.3985;stroke-linecap:butt;stroke-linejoin:miter;stroke:rgb(0%,0%,0%);stroke-opacity:1;stroke-miterlimit:10;" d="M -0.000125 0.000125 L 238.113156 0.000125 M -0.000125 -19.843625 L 238.113156 -19.843625 M -0.000125 -39.683469 L 238.113156 -39.683469 M -0.000125 -59.527219 L 238.113156 -59.527219 M -0.000125 -79.370969 L 238.113156 -79.370969 M -0.000125 -99.214719 L 238.113156 -99.214719 M -0.000125 -119.054563 L 238.113156 -119.054563 M -0.000125 -138.898313 L 238.113156 -138.898313 M -0.000125 -158.742063 L 238.113156 -158.742063 M -0.000125 -178.585813 L 238.113156 -178.585813 M -0.000125 -198.425656 L 238.113156 -198.425656 M -0.000125 -218.269406 L 238.113156 -218.269406 M -0.000125 -238.105344 L 238.113156 -238.105344 M -0.000125 0.000125 L -0.000125 -238.113156 M 19.843625 0.000125 L 19.843625 -238.113156 M 39.683469 0.000125 L 39.683469 -238.113156 M 59.527219 0.000125 L 59.527219 -238.113156 M 79.370969 0.000125 L 79.370969 -238.113156 M 99.214719 0.000125 L 99.214719 -238.113156 M 119.054563 0.000125 L 119.054563 -238.113156 M 138.898313 0.000125 L 138.898313 -238.113156 M 158.742063 0.000125 L 158.742063 -238.113156 M 178.585813 0.000125 L 178.585813 -238.113156 M 198.425656 0.000125 L 198.425656 -238.113156 M 218.269406 0.000125 L 218.269406 -238.113156 M 238.105344 0.000125 L 238.105344 -238.113156 " transform="matrix(1,0,0,-1,0.797,0.797)"/>
<path style="fill:none;stroke-width:1.19553;stroke-linecap:butt;stroke-linejoin:miter;stroke:rgb(54.499817%,0%,0%);stroke-opacity:1;stroke-miterlimit:10;" d="M 0.956906 -119.054563 L 38.730344 -119.054563 " transform="matrix(1,0,0,-1,0.797,0.797)"/>
<path style="fill:none;stroke-width:0.9564;stroke-linecap:round;stroke-linejoin:round;stroke:rgb(54.499817%,0%,0%);stroke-opacity:1;stroke-miterlimit:10;" d="M -1.914569 2.549284 C -1.754412 1.592253 -0.00050625 0.158659 0.479963 -0.0014975 C -0.00050625 -0.157747 -1.754412 -1.595247 -1.914569 -2.552279 " transform="matrix(-1,0,0,1,1.7534,119.85306)"/>
<path style="fill:none;stroke-width:0.9564;stroke-linecap:round;stroke-linejoin:round;stroke:rgb(54.499817%,0%,0%);stroke-opacity:1;stroke-miterlimit:10;" d="M -1.912649 2.552279 C -1.752493 1.595247 0.00141375 0.157747 0.477976 0.0014975 C 0.00141375 -0.158659 -1.752493 -1.592253 -1.912649 -2.549284 " transform="matrix(1,0,0,-1,39.52593,119.85306)"/>
<path style="fill:none;stroke-width:1.19553;stroke-linecap:butt;stroke-linejoin:miter;stroke:rgb(54.499817%,0%,0%);stroke-opacity:1;stroke-miterlimit:10;" d="M 237.156125 -119.054563 L 219.226438 -119.054563 " transform="matrix(1,0,0,-1,0.797,0.797)"/>
<path style="fill:none;stroke-width:0.9564;stroke-linecap:round;stroke-linejoin:round;stroke:rgb(54.499817%,0%,0%);stroke-opacity:1;stroke-miterlimit:10;" d="M -1.913668 2.552279 C -1.753511 1.595247 0.000395 0.157747 0.476957 0.0014975 C 0.000395 -0.158659 -1.753511 -1.592253 -1.913668 -2.549284 " transform="matrix(1,0,0,-1,237.95273,119.85306)"/>
<path style="fill:none;stroke-width:0.9564;stroke-linecap:round;stroke-linejoin:round;stroke:rgb(54.499817%,0%,0%);stroke-opacity:1;stroke-miterlimit:10;" d="M -1.91462 2.549284 C -1.754464 1.592253 -0.0005575 0.158659 0.479911 -0.0014975 C -0.0005575 -0.157747 -1.754464 -1.595247 -1.91462 -2.552279 " transform="matrix(-1,0,0,1,220.02288,119.85306)"/>
<path style="fill:none;stroke-width:1.19553;stroke-linecap:butt;stroke-linejoin:miter;stroke:rgb(0%,0%,54.499817%);stroke-opacity:1;stroke-miterlimit:10;" d="M 119.054563 -0.956906 L 119.054563 -58.570188 " transform="matrix(1,0,0,-1,0.797,0.797)"/>
<path style="fill:none;stroke-width:0.9564;stroke-linecap:round;stroke-linejoin:round;stroke:rgb(0%,0%,54.499817%);stroke-opacity:1;stroke-miterlimit:10;" d="M -1.914569 2.552279 C -1.754413 1.595247 -0.00050625 0.157747 0.479962 0.0014975 C -0.00050625 -0.158659 -1.754413 -1.592253 -1.914569 -2.549284 " transform="matrix(0,-1,-1,0,119.85306,1.7534)"/>
<path style="fill:none;stroke-width:0.9564;stroke-linecap:round;stroke-linejoin:round;stroke:rgb(0%,0%,54.499817%);stroke-opacity:1;stroke-miterlimit:10;" d="M -1.911579 2.549284 C -1.755329 1.592253 -0.0014225 0.158659 0.479046 -0.0014975 C -0.0014225 -0.157747 -1.755329 -1.595247 -1.911579 -2.552279 " transform="matrix(0,1,1,0,119.85306,59.36861)"/>
<path style="fill:none;stroke-width:1.19553;stroke-linecap:butt;stroke-linejoin:miter;stroke:rgb(0%,0%,54.499817%);stroke-opacity:1;stroke-miterlimit:10;" d="M 119.054563 -237.156125 L 119.054563 -199.382688 " transform="matrix(1,0,0,-1,0.797,0.797)"/>
<path style="fill:none;stroke-width:0.9564;stroke-linecap:round;stroke-linejoin:round;stroke:rgb(0%,0%,54.499817%);stroke-opacity:1;stroke-miterlimit:10;" d="M -1.913667 2.549284 C -1.753511 1.592253 0.000395 0.158659 0.476958 -0.0014975 C 0.000395 -0.157747 -1.753511 -1.595247 -1.913667 -2.552279 " transform="matrix(0,1,1,0,119.85306,237.95273)"/>
<path style="fill:none;stroke-width:0.9564;stroke-linecap:round;stroke-linejoin:round;stroke:rgb(0%,0%,54.499817%);stroke-opacity:1;stroke-miterlimit:10;" d="M -1.91354 2.552279 C -1.753384 1.595247 0.0005225 0.157747 0.477085 0.0014975 C 0.0005225 -0.158659 -1.753384 -1.592253 -1.91354 -2.549284 " transform="matrix(0,-1,-1,0,119.85306,200.18021)"/>
</g>
</svg>
